<svg width="349.543030" height="34.992188" viewBox="0 0 349.543 34.9922" fill="none" xmlns="http://www.w3.org/2000/svg" xmlns:xlink="http://www.w3.org/1999/xlink">
	<desc>
			Created with Pixso.
	</desc>
	<defs/>
	<path d="M299.84 5.68Q300.76 6.38 302.22 6.38Q303.65 6.38 304.56 5.7Q304.69 5.6 304.81 5.49Q305.15 5.18 305.37 4.79Q305.77 4.09 305.77 3.16Q305.77 2.23 305.36 1.55Q305.14 1.17 304.79 0.86Q304.64 0.73 304.48 0.63Q303.57 0 302.22 0Q300.71 0 299.78 0.73Q299.7 0.79 299.62 0.86Q299.3 1.15 299.08 1.5Q298.66 2.2 298.66 3.16Q298.66 4.09 299.06 4.79Q299.28 5.18 299.62 5.49Q299.72 5.59 299.84 5.68ZM31.62 0.97Q30.92 0.52 29.95 0.52Q29.48 0.52 29.06 0.67Q27.9 1.07 27.12 2.58L16.52 22.89L5.85 2.58Q5.13 1.17 4.02 0.72Q3.51 0.52 2.92 0.52Q1.97 0.52 1.28 0.96Q1.02 1.13 0.79 1.37Q0.65 1.51 0.54 1.68Q0 2.44 0 3.59L0 32.01Q0 33.25 0.6 34Q0.65 34.07 0.71 34.13Q0.88 34.31 1.07 34.44Q1.72 34.89 2.69 34.89Q3.57 34.89 4.19 34.5Q4.45 34.33 4.67 34.1Q4.83 33.93 4.95 33.74Q5.42 33.03 5.42 32.01L5.42 12.48L13.64 27.69Q14.21 28.79 14.88 29.27Q15.07 29.4 15.28 29.5Q15.81 29.75 16.46 29.75Q17.11 29.75 17.64 29.49Q17.85 29.39 18.04 29.25Q18.72 28.74 19.3 27.69L27.45 12.23L27.45 32.01Q27.45 33.25 28.06 34Q28.11 34.07 28.17 34.13Q28.33 34.31 28.53 34.44Q29.18 34.89 30.15 34.89Q31.06 34.89 31.72 34.48Q31.95 34.33 32.15 34.13Q32.28 34 32.39 33.86Q32.92 33.13 32.92 32.01L32.92 3.59Q32.92 2.49 32.41 1.73Q32.27 1.54 32.1 1.37Q31.88 1.13 31.62 0.97ZM133.73 34.45Q134.46 34.89 135.45 34.89Q136.47 34.89 137.21 34.45Q137.42 34.32 137.61 34.16Q137.81 33.98 137.96 33.78Q138.48 33.08 138.48 32.01L138.48 3.36Q138.48 2.27 137.95 1.6Q137.8 1.41 137.61 1.25Q137.44 1.1 137.25 0.98Q136.49 0.52 135.45 0.52Q134.44 0.52 133.7 0.98Q133.5 1.1 133.32 1.25Q133.16 1.39 133.03 1.55Q132.48 2.23 132.48 3.36L132.48 32.01Q132.48 33.12 133.01 33.82Q133.15 34 133.32 34.16Q133.51 34.32 133.73 34.45ZM187.17 34.45Q187.89 34.89 188.88 34.89Q189.92 34.89 190.63 34.41Q190.87 34.25 191.08 34.03Q191.27 33.83 191.41 33.61Q191.9 32.84 191.9 31.76L191.9 19.87L204.67 19.87Q206.4 19.87 207.11 19.02Q207.6 18.43 207.6 17.42Q207.6 16.37 207.08 15.76Q206.37 14.92 204.67 14.92L191.9 14.92L191.9 5.7L205.63 5.7Q207.36 5.7 208.07 4.85Q208.56 4.26 208.56 3.25Q208.56 2.2 208.05 1.59Q207.33 0.76 205.63 0.76L188.78 0.76Q187.57 0.76 186.8 1.35Q186.69 1.43 186.59 1.53Q186.49 1.63 186.4 1.74Q185.81 2.48 185.81 3.69L185.81 31.76Q185.81 32.8 186.27 33.55Q186.43 33.8 186.65 34.03Q186.89 34.27 187.17 34.45ZM57.19 12.98Q54.81 10.55 49.93 10.55Q47.66 10.55 45.33 11.08Q43.01 11.61 41.32 12.52Q40.36 13.05 39.95 13.65Q39.9 13.72 39.86 13.8Q39.55 14.35 39.55 15.07Q39.55 15.93 39.96 16.51Q40.03 16.61 40.11 16.69Q40.34 16.96 40.64 17.12Q41.03 17.32 41.52 17.32Q42.1 17.32 43.34 16.69Q45.31 15.93 46.75 15.52Q48.19 15.11 49.59 15.11Q51.84 15.11 52.84 16.19Q53.85 17.27 53.85 19.62L53.85 20.73L52.66 20.73Q47.43 20.73 44.45 21.41Q41.48 22.07 40.15 23.56Q40.1 23.62 40.05 23.68Q38.83 25.15 38.83 27.64Q38.83 28.82 39.19 29.87Q39.46 30.67 39.93 31.39Q40.21 31.82 40.55 32.2Q41.53 33.31 42.96 34.03Q43.16 34.12 43.36 34.21Q45.13 34.99 47.23 34.99Q49.33 34.99 50.96 34.12Q51.13 34.03 51.28 33.93Q52.18 33.39 52.83 32.64Q53.46 31.92 53.85 31L53.85 32.06Q53.85 32.9 54.22 33.53Q54.39 33.83 54.65 34.07Q54.88 34.29 55.15 34.45Q55.8 34.83 56.69 34.83Q57.89 34.83 58.62 34.25Q58.71 34.18 58.8 34.1Q58.95 33.95 59.08 33.78Q59.57 33.1 59.57 32.06L59.57 20.34Q59.57 15.41 57.19 12.98ZM87.81 33.5Q90.48 34.99 93.98 34.99Q95.26 34.99 96.5 34.78Q97.27 34.65 98.02 34.44Q99.98 33.89 101.47 32.92Q102.29 32.44 102.64 31.85Q102.67 31.81 102.69 31.77Q103.01 31.19 103.01 30.43Q103.01 29.55 102.61 28.93Q102.55 28.84 102.48 28.75Q102.15 28.32 101.71 28.16Q101.46 28.07 101.18 28.07Q100.65 28.07 100.13 28.3Q99.6 28.51 98.88 28.94Q97.73 29.56 96.8 29.92Q95.86 30.28 94.65 30.28Q92.49 30.28 91.05 29.26Q90.51 28.87 90.07 28.34Q88.46 26.4 88.46 22.79Q88.46 19.14 90.07 17.2Q90.52 16.65 91.07 16.26Q92.51 15.25 94.65 15.25Q95.91 15.25 96.87 15.62Q97.83 15.98 98.88 16.6Q99.46 16.94 100.03 17.19Q100.61 17.42 101.13 17.42Q101.55 17.42 101.88 17.26Q102.21 17.1 102.46 16.78Q102.96 16.12 102.96 15.07Q102.96 14.59 102.82 14.17Q102.49 13.22 101.43 12.52Q99.98 11.61 98.09 11.08Q96.19 10.55 94.32 10.55Q90.94 10.55 88.29 11.95Q88.16 12.02 88.03 12.09Q86.83 12.76 85.87 13.68Q84.64 14.86 83.79 16.44Q82.28 19.24 82.28 22.89Q82.28 26.54 83.71 29.28Q84.48 30.75 85.62 31.87Q86.58 32.81 87.81 33.5ZM126.33 28.34Q125.99 28.17 125.56 28.17Q124.9 28.17 123.46 28.94Q121.97 29.61 120.78 30Q119.61 30.38 118.08 30.38Q115.15 30.38 113.58 28.92Q113.52 28.87 113.47 28.82Q111.89 27.25 111.6 23.95L125.76 23.95Q126.56 23.95 127 23.55Q127.58 23.05 127.58 21.89Q127.58 18.43 126.28 15.89Q125.45 14.24 124.17 13.08Q123.47 12.44 122.63 11.95Q120.29 10.55 117.12 10.55Q114.48 10.55 112.28 11.53Q111.72 11.78 111.19 12.09Q110.18 12.68 109.34 13.46Q108.02 14.7 107.13 16.41Q105.7 19.19 105.7 22.79Q105.7 27.42 107.9 30.45Q108.4 31.13 109.01 31.73Q109.59 32.3 110.25 32.78Q113.32 34.99 117.98 34.99Q119.86 34.99 121.92 34.44Q123.98 33.89 125.61 32.97Q127.02 32.18 127.31 31.08Q127.39 30.79 127.39 30.48Q127.39 29.42 126.89 28.8Q126.65 28.5 126.33 28.34ZM149.06 33.5Q151.77 34.99 155.38 34.99Q158.98 34.99 161.69 33.5Q162.94 32.81 163.93 31.85Q165.08 30.73 165.87 29.23Q167.33 26.44 167.33 22.74Q167.33 19.05 165.87 16.3Q165.09 14.83 163.97 13.73Q162.97 12.74 161.69 12.04Q158.98 10.55 155.38 10.55Q151.77 10.55 149.06 12.04Q147.85 12.71 146.88 13.63Q145.69 14.77 144.87 16.3Q143.38 19.05 143.38 22.74Q143.38 26.44 144.87 29.23Q145.7 30.79 146.92 31.94Q147.88 32.85 149.06 33.5ZM231.31 28.34Q230.97 28.17 230.54 28.17Q229.87 28.17 228.43 28.94Q226.94 29.61 225.76 30Q224.59 30.38 223.05 30.38Q220.13 30.38 218.55 28.92Q218.5 28.87 218.45 28.82Q216.86 27.25 216.57 23.95L230.74 23.95Q231.53 23.95 231.98 23.55Q232.56 23.05 232.56 21.89Q232.56 18.43 231.26 15.89Q230.42 14.24 229.15 13.08Q228.45 12.44 227.61 11.95Q225.27 10.55 222.09 10.55Q219.46 10.55 217.26 11.53Q216.69 11.78 216.16 12.09Q215.15 12.68 214.32 13.46Q212.99 14.7 212.11 16.41Q210.68 19.19 210.68 22.79Q210.68 27.42 212.88 30.45Q213.37 31.13 213.98 31.73Q214.57 32.3 215.22 32.78Q218.3 34.99 222.96 34.99Q224.83 34.99 226.9 34.44Q228.96 33.89 230.59 32.97Q231.99 32.18 232.29 31.08Q232.37 30.79 232.37 30.48Q232.37 29.42 231.86 28.8Q231.62 28.5 231.31 28.34ZM293.08 28.34Q292.74 28.17 292.32 28.17Q291.65 28.17 290.21 28.94Q288.72 29.61 287.54 30Q286.36 30.38 284.83 30.38Q281.9 30.38 280.33 28.92Q280.28 28.87 280.22 28.82Q278.64 27.25 278.35 23.95L292.51 23.95Q293.31 23.95 293.76 23.55Q294.33 23.05 294.33 21.89Q294.33 18.43 293.03 15.89Q292.2 14.24 290.93 13.08Q290.22 12.44 289.39 11.95Q287.04 10.55 283.87 10.55Q281.23 10.55 279.03 11.53Q278.47 11.78 277.94 12.09Q276.93 12.68 276.09 13.46Q274.77 14.7 273.88 16.41Q272.45 19.19 272.45 22.79Q272.45 27.42 274.66 30.45Q275.15 31.13 275.76 31.73Q276.34 32.3 277 32.78Q280.07 34.99 284.73 34.99Q286.61 34.99 288.67 34.44Q290.73 33.89 292.36 32.97Q293.77 32.18 294.07 31.08Q294.14 30.79 294.14 30.48Q294.14 29.42 293.64 28.8Q293.4 28.5 293.08 28.34ZM347.16 12.98Q344.78 10.55 339.89 10.55Q337.63 10.55 335.3 11.08Q332.98 11.61 331.29 12.52Q330.33 13.05 329.92 13.65Q329.87 13.72 329.83 13.8Q329.52 14.35 329.52 15.07Q329.52 15.93 329.93 16.51Q330 16.61 330.07 16.69Q330.31 16.96 330.61 17.12Q331 17.32 331.49 17.32Q332.07 17.32 333.31 16.69Q335.28 15.93 336.72 15.52Q338.16 15.11 339.55 15.11Q341.8 15.11 342.81 16.19Q343.82 17.27 343.82 19.62L343.82 20.73L342.62 20.73Q337.4 20.73 334.42 21.41Q331.44 22.07 330.12 23.56Q330.07 23.62 330.02 23.68Q328.8 25.15 328.8 27.64Q328.8 28.82 329.16 29.87Q329.43 30.67 329.9 31.39Q330.18 31.82 330.52 32.2Q331.5 33.31 332.93 34.03Q333.13 34.12 333.33 34.21Q335.09 34.99 337.2 34.99Q339.3 34.99 340.93 34.12Q341.09 34.03 341.25 33.93Q342.15 33.39 342.8 32.64Q343.42 31.92 343.82 31L343.82 32.06Q343.82 32.9 344.19 33.53Q344.36 33.83 344.62 34.07Q344.85 34.29 345.12 34.45Q345.77 34.83 346.66 34.83Q347.85 34.83 348.59 34.25Q348.68 34.18 348.77 34.1Q348.92 33.95 349.04 33.78Q349.54 33.1 349.54 32.06L349.54 20.34Q349.54 15.41 347.16 12.98ZM80.62 11.09Q79.93 10.56 78.76 10.65L78.1 10.69Q76.75 10.78 75.54 11.25Q74.79 11.55 74.09 12Q73.54 12.34 73.08 12.78Q72.01 13.78 71.38 15.25L71.38 13.33Q71.38 12.29 70.88 11.64Q70.76 11.48 70.61 11.35Q70.48 11.24 70.35 11.14Q69.64 10.65 68.59 10.65Q67.7 10.65 67.01 11.02Q66.74 11.17 66.51 11.37Q66.31 11.54 66.16 11.74Q65.66 12.4 65.66 13.44L65.66 32.01Q65.66 33.12 66.2 33.82Q66.33 34 66.51 34.16Q66.7 34.32 66.91 34.45Q67.64 34.89 68.64 34.89Q69.65 34.89 70.4 34.45Q70.61 34.32 70.79 34.16Q70.99 33.98 71.15 33.78Q71.66 33.08 71.66 32.01L71.66 21.93Q71.66 19.9 72.57 18.44Q72.76 18.13 72.99 17.85Q73.06 17.76 73.15 17.66Q74.48 16.2 77.13 15.93L78.58 15.78Q80.2 15.59 80.83 14.97Q81.46 14.34 81.46 13.05Q81.46 11.98 80.93 11.37Q80.84 11.26 80.73 11.17Q80.68 11.13 80.62 11.09ZM252.42 11.09Q251.72 10.56 250.56 10.65L249.89 10.69Q248.54 10.78 247.34 11.25Q246.58 11.55 245.88 12Q245.34 12.34 244.87 12.78Q243.8 13.78 243.17 15.25L243.17 13.33Q243.17 12.29 242.67 11.64Q242.55 11.48 242.4 11.35Q242.28 11.24 242.14 11.14Q241.43 10.65 240.38 10.65Q239.49 10.65 238.8 11.02Q238.53 11.17 238.3 11.37Q238.1 11.54 237.95 11.74Q237.45 12.4 237.45 13.44L237.45 32.01Q237.45 33.12 237.99 33.82Q238.13 34 238.3 34.16Q238.49 34.32 238.71 34.45Q239.44 34.89 240.43 34.89Q241.44 34.89 242.19 34.45Q242.4 34.32 242.59 34.16Q242.79 33.98 242.94 33.78Q243.45 33.08 243.45 32.01L243.45 21.93Q243.45 19.9 244.36 18.44Q244.55 18.13 244.78 17.85Q244.86 17.76 244.94 17.66Q246.27 16.2 248.93 15.93L250.37 15.78Q252 15.59 252.62 14.97Q253.25 14.34 253.25 13.05Q253.25 11.98 252.72 11.37Q252.63 11.26 252.52 11.17Q252.47 11.13 252.42 11.09ZM270.8 11.09Q270.1 10.56 268.94 10.65L268.27 10.69Q266.92 10.78 265.72 11.25Q264.96 11.55 264.26 12Q263.72 12.34 263.26 12.78Q262.19 13.78 261.56 15.25L261.56 13.33Q261.56 12.29 261.05 11.64Q260.93 11.48 260.78 11.35Q260.66 11.24 260.52 11.14Q259.82 10.65 258.77 10.65Q257.87 10.65 257.18 11.02Q256.92 11.17 256.68 11.37Q256.49 11.54 256.33 11.74Q255.84 12.4 255.84 13.44L255.84 32.01Q255.84 33.12 256.37 33.82Q256.51 34 256.68 34.16Q256.87 34.32 257.09 34.45Q257.82 34.89 258.81 34.89Q259.83 34.89 260.57 34.45Q260.78 34.32 260.97 34.16Q261.17 33.98 261.32 33.78Q261.84 33.08 261.84 32.01L261.84 21.93Q261.84 19.9 262.75 18.44Q262.93 18.13 263.16 17.85Q263.24 17.76 263.32 17.66Q264.65 16.2 267.31 15.93L268.75 15.78Q270.38 15.59 271 14.97Q271.64 14.34 271.64 13.05Q271.64 11.98 271.1 11.37Q271.01 11.26 270.91 11.17Q270.86 11.13 270.8 11.09ZM326.39 11.09Q325.69 10.56 324.52 10.65L323.86 10.69Q322.51 10.78 321.3 11.25Q320.55 11.55 319.85 12Q319.3 12.34 318.84 12.78Q317.77 13.78 317.14 15.25L317.14 13.33Q317.14 12.29 316.64 11.64Q316.52 11.48 316.37 11.35Q316.24 11.24 316.11 11.14Q315.4 10.65 314.35 10.65Q313.46 10.65 312.77 11.02Q312.5 11.17 312.27 11.37Q312.07 11.54 311.92 11.74Q311.42 12.4 311.42 13.44L311.42 32.01Q311.42 33.12 311.96 33.82Q312.1 34 312.27 34.16Q312.46 34.32 312.67 34.45Q313.4 34.89 314.4 34.89Q315.41 34.89 316.16 34.45Q316.37 34.32 316.56 34.16Q316.75 33.98 316.91 33.78Q317.42 33.08 317.42 32.01L317.42 21.93Q317.42 19.9 318.33 18.44Q318.52 18.13 318.75 17.85Q318.82 17.76 318.91 17.66Q320.24 16.2 322.9 15.93L324.34 15.78Q325.97 15.59 326.59 14.97Q327.22 14.34 327.22 13.05Q327.22 11.98 326.69 11.37Q326.6 11.26 326.49 11.17Q326.44 11.13 326.39 11.09ZM300.48 34.45Q301.21 34.89 302.21 34.89Q303.22 34.89 303.96 34.45Q304.17 34.32 304.36 34.16Q304.56 33.98 304.72 33.78Q305.23 33.08 305.23 32.01L305.23 13.48Q305.23 12.39 304.7 11.72Q304.55 11.53 304.36 11.37Q304.19 11.23 304 11.11Q303.24 10.65 302.21 10.65Q301.19 10.65 300.45 11.1Q300.25 11.22 300.07 11.37Q299.91 11.51 299.78 11.67Q299.23 12.36 299.23 13.48L299.23 32.01Q299.23 33.12 299.77 33.82Q299.9 34 300.07 34.16Q300.27 34.32 300.48 34.45ZM114.23 15.58Q115.49 14.77 117.27 14.77Q119.07 14.77 120.27 15.62Q120.67 15.9 121.01 16.28Q122.35 17.8 122.45 20.73L111.6 20.73Q111.89 17.84 113.35 16.31Q113.76 15.89 114.23 15.58ZM219.21 15.58Q220.47 14.77 222.24 14.77Q224.04 14.77 225.24 15.62Q225.65 15.9 225.98 16.28Q227.33 17.8 227.42 20.73L216.57 20.73Q216.86 17.84 218.33 16.31Q218.73 15.89 219.21 15.58ZM280.99 15.58Q282.24 14.77 284.02 14.77Q285.82 14.77 287.02 15.62Q287.42 15.9 287.76 16.28Q289.1 17.8 289.2 20.73L278.35 20.73Q278.64 17.84 280.1 16.31Q280.51 15.89 280.99 15.58ZM158.84 29.32Q157.45 30.32 155.33 30.32Q153.28 30.32 151.92 29.36Q151.36 28.97 150.92 28.41Q149.38 26.49 149.38 22.74Q149.38 19.05 150.94 17.1Q151.42 16.5 152.04 16.08Q153.39 15.16 155.38 15.16Q157.36 15.16 158.7 16.08Q159.31 16.5 159.79 17.1Q161.33 19.05 161.33 22.74Q161.33 26.49 159.79 28.41Q159.37 28.94 158.84 29.32ZM51.09 30.03Q49.94 30.66 48.44 30.66Q47.38 30.66 46.54 30.23Q46.13 30.01 45.77 29.68Q45.31 29.26 45.05 28.75Q44.69 28.04 44.69 27.16Q44.69 26.21 45.13 25.57Q45.27 25.37 45.45 25.2Q46.22 24.48 47.99 24.19Q49.77 23.9 53 23.9L53.85 23.9L53.85 24.91Q53.85 26.83 52.99 28.21Q52.71 28.66 52.34 29.06Q51.78 29.66 51.09 30.03ZM341.06 30.03Q339.91 30.66 338.41 30.66Q337.35 30.66 336.51 30.23Q336.09 30.01 335.73 29.68Q335.28 29.26 335.01 28.75Q334.66 28.04 334.66 27.16Q334.66 26.21 335.1 25.57Q335.24 25.37 335.42 25.2Q336.19 24.48 337.96 24.19Q339.74 23.9 342.96 23.9L343.82 23.9L343.82 24.91Q343.82 26.83 342.96 28.21Q342.68 28.66 342.31 29.06Q341.74 29.66 341.06 30.03Z" fill="#363636" fill-opacity="1.000000" fill-rule="evenodd"/>
</svg>
